<svg xmlns="http://www.w3.org/2000/svg" xmlns:xlink="http://www.w3.org/1999/xlink" xmlns:lucid="lucid" width="2420" height="1740"><g transform="translate(-12 0)" lucid:page-tab-id="0_0"><path d="M0 0h3676.8v2582.4H0z" fill="#fff"/><path d="M953.33 1287.33h240v60h-240z" fill="none"/><path d="M360 160h160v60H360z" stroke="#000" stroke-width="2" fill="#fff"/><use xlink:href="#a" transform="matrix(1,0,0,1,365,165) translate(6.6499999999999915 30.025)"/><use xlink:href="#b" transform="matrix(1,0,0,1,365,165) translate(72.5 30.025)"/><path d="M360 60h180v60H360z" stroke="#000" stroke-width="2" fill="#fff"/><use xlink:href="#c" transform="matrix(1,0,0,1,365,65) translate(9.199999999999989 30.025)"/><use xlink:href="#d" transform="matrix(1,0,0,1,365,65) translate(65 30.025)"/><path d="M948 60c17.67 0 32 17.9 32 40s-14.33 40-32 40h-96c-17.67 0-32-17.9-32-40s14.33-40 32-40z" stroke="#000" stroke-width="2" fill="#fff"/><use xlink:href="#e" transform="matrix(1,0,0,1,825,65) translate(12.074999999999996 38.4625)"/><use xlink:href="#f" transform="matrix(1,0,0,1,825,65) translate(83.92500000000001 38.4625)"/><path d="M1190 60h200v60h-200z" stroke="#000" stroke-width="2" fill="#fff"/><use xlink:href="#g" transform="matrix(1,0,0,1,1195,65) translate(13.174999999999983 30.025)"/><use xlink:href="#h" transform="matrix(1,0,0,1,1195,65) translate(113.975 30.025)"/><path d="M1744 30c8.84 0 16 26.86 16 60s-7.16 60-16 60h-128c-8.84 0-16-26.86-16-60s7.16-60 16-60z" stroke="#000" stroke-width="2" fill="#fff"/><path d="M1744 150c-8.84 0-16-26.86-16-60s7.16-60 16-60" stroke="#000" stroke-width="2" fill="none"/><use xlink:href="#i" transform="matrix(1,0,0,1,1605,35) translate(44.025 48.775)"/><use xlink:href="#j" transform="matrix(1,0,0,1,1605,35) translate(6.349999999999994 70.375)"/><use xlink:href="#k" transform="matrix(1,0,0,1,1605,35) translate(81.3 70.375)"/><path d="M542 90h259.58" stroke="#000" stroke-width="2" fill="none"/><path d="M542.03 91H541v-2h1.03z"/><path d="M816.84 90l-14.26 4.64v-9.28z" stroke="#000" stroke-width="2"/><use xlink:href="#l" transform="matrix(1,0,0,1,625.689961210829,64.4) translate(0.005000000000002558 14.4)"/><path d="M522 190h378v-30.5" stroke="#000" stroke-width="2" fill="none"/><path d="M522.03 191H521v-2h1.03z"/><path d="M900 144.24l4.64 14.26h-9.28z" stroke="#000" stroke-width="2"/><use xlink:href="#m" transform="matrix(1,0,0,1,611.0193073593678,164.39999999999998) translate(0.005000000000002558 14.4)"/><path d="M982 100h188.5" stroke="#000" stroke-width="2" fill="none"/><path d="M982.03 101h-1.1l.07-1-.03-1h1.06z"/><path d="M1185.76 100l-14.26 4.64v-9.28z" stroke="#000" stroke-width="2"/><use xlink:href="#n" transform="matrix(1,0,0,1,1003.6253111092637,74.39999999999999) translate(0.0049999999999954525 14.4)"/><use xlink:href="#o" transform="matrix(1,0,0,1,1003.6253111092637,74.39999999999999) translate(90.905 14.4)"/><path d="M1409.5 90h171" stroke="#000" stroke-width="2" fill="none"/><path d="M1394.24 90l14.26-4.64v9.28zM1595.76 90l-14.26 4.64v-9.28z" stroke="#000" stroke-width="2"/><path d="M1000 1357.33h160v120h-160z" stroke="#000" stroke-width="2" fill="#fff"/><use xlink:href="#a" transform="matrix(1,0,0,1,1005,1362.3333333333333) translate(13.099999999999994 59.0875)"/><use xlink:href="#p" transform="matrix(1,0,0,1,1005,1362.3333333333333) translate(78.95 59.0875)"/><path d="M1128 1157.33c17.67 0 32 17.9 32 40s-14.33 40-32 40h-96c-17.67 0-32-17.9-32-40s14.33-40 32-40z" stroke="#000" stroke-width="2" fill="#fff"/><use xlink:href="#q" transform="matrix(1,0,0,1,1005,1162.3333333333333) translate(18.549999999999997 27.525)"/><use xlink:href="#r" transform="matrix(1,0,0,1,1005,1162.3333333333333) translate(73.5 27.525)"/><use xlink:href="#f" transform="matrix(1,0,0,1,1005,1162.3333333333333) translate(48 49.125)"/><path d="M1080 1239.33v98.5" stroke="#000" stroke-width="2" fill="none"/><path d="M1081 1239.36h-2v-1.03h2z"/><path d="M1080 1353.1l-4.64-14.27h9.28z" stroke="#000" stroke-width="2"/><path d="M920 640h160v120H920z" stroke="#000" stroke-width="2" fill="#fff"/><use xlink:href="#s" transform="matrix(1,0,0,1,925.0000000000001,645) translate(14.799999999999997 59.0875)"/><use xlink:href="#h" transform="matrix(1,0,0,1,925.0000000000001,645) translate(72.35 59.0875)"/><path d="M1253.93 122v188H1000v110.5" stroke="#000" stroke-width="2" fill="none"/><path d="M1254.93 122.03h-2V121h2z"/><path d="M1000 435.76l-4.64-14.26h9.28z" stroke="#000" stroke-width="2"/><use xlink:href="#t" transform="matrix(1,0,0,1,858.55,344.5611315602741) translate(0.0049999999999954525 14.4)"/><path d="M1312 122v187h436v91.5" stroke="#000" stroke-width="2" fill="none"/><path d="M1313 122.03h-2V121h2z"/><path d="M1748 415.76l-4.64-14.26h9.28z" stroke="#000" stroke-width="2"/><use xlink:href="#u" transform="matrix(1,0,0,1,1750.806008546717,294.9007433205581) translate(0.005000000000002558 14.4)"/><path d="M1210.76 122v148H620v1147.33h40.5" stroke="#000" stroke-width="2" fill="none"/><path d="M1211.76 122.03h-2V121h2z"/><path d="M675.76 1417.33l-14.26 4.64v-9.27z" stroke="#000" stroke-width="2"/><use xlink:href="#v" transform="matrix(1,0,0,1,466.20000000000005,1011.7837277800551) translate(0.0049999999999954525 14.4)"/><path d="M1000 522v98.5" stroke="#000" stroke-width="2" fill="none"/><path d="M1001 522.03h-2V521h2z"/><path d="M1000 635.76l-4.64-14.26h9.28z" stroke="#000" stroke-width="2"/><path d="M1668 639h160v120h-160z" stroke="#000" stroke-width="2" fill="#fff"/><use xlink:href="#w" transform="matrix(1,0,0,1,1673,644) translate(16.64999999999999 59.0875)"/><use xlink:href="#h" transform="matrix(1,0,0,1,1673,644) translate(70.5 59.0875)"/><path d="M1748 502v117.5" stroke="#000" stroke-width="2" fill="none"/><path d="M1749 502.03h-2V501h2z"/><path d="M1748 634.76l-4.64-14.26h9.28z" stroke="#000" stroke-width="2"/><path d="M824 640c8.84 0 16 26.86 16 60s-7.16 60-16 60H696c-8.84 0-16-26.86-16-60s7.16-60 16-60z" stroke="#000" stroke-width="2" fill="#fff"/><path d="M824 760c-8.84 0-16-26.86-16-60s7.16-60 16-60" stroke="#000" stroke-width="2" fill="none"/><use xlink:href="#i" transform="matrix(1,0,0,1,685,645) translate(44.025 38.4625)"/><use xlink:href="#x" transform="matrix(1,0,0,1,685,645) translate(16.349999999999994 60.0625)"/><use xlink:href="#y" transform="matrix(1,0,0,1,685,645) translate(71.3 60.0625)"/><use xlink:href="#z" transform="matrix(1,0,0,1,685,645) translate(24.049999999999997 81.66250000000001)"/><path d="M900.5 700h-41" stroke="#000" stroke-width="2" fill="none"/><path d="M915.76 700l-14.26 4.64v-9.28zM844.24 700l14.26-4.64v9.28z" stroke="#000" stroke-width="2"/><path d="M2104 640c8.84 0 16 26.86 16 60s-7.16 60-16 60h-128c-8.84 0-16-26.86-16-60s7.16-60 16-60z" stroke="#000" stroke-width="2" fill="#fff"/><path d="M2104 760c-8.84 0-16-26.86-16-60s7.16-60 16-60" stroke="#000" stroke-width="2" fill="none"/><use xlink:href="#i" transform="matrix(1,0,0,1,1965,645) translate(44.025 38.4625)"/><use xlink:href="#x" transform="matrix(1,0,0,1,1965,645) translate(16.349999999999994 60.0625)"/><use xlink:href="#y" transform="matrix(1,0,0,1,1965,645) translate(71.3 60.0625)"/><use xlink:href="#A" transform="matrix(1,0,0,1,1965,645) translate(25.525 81.66250000000001)"/><path d="M1940.5 700H1894v-1h-46.5" stroke="#000" stroke-width="2" fill="none"/><path d="M1955.76 700l-14.26 4.64v-9.28zM1832.24 699l14.26-4.64v9.28z" stroke="#000" stroke-width="2"/><path d="M1184 724c-13.25 0-24-10.75-24-24 0-10.6 6.5-19.55 16.58-22.83C1176 646 1216 640 1232 652c8-18 48-12 48 6 24-6 48 18 32 48 16 24 0 54-32 42-8 15.6-40 15.6-48 0-16 12-48 6-48-24z" stroke="#000" stroke-width="2" fill="#fff"/><use xlink:href="#B" transform="matrix(1,0,0,1,1165,645) translate(59 59.0875)"/><path d="M1464 723c-13.25 0-24-10.75-24-24 0-10.6 6.5-19.55 16.58-22.83C1456 645 1496 639 1512 651c8-18 48-12 48 6 24-6 48 18 32 48 16 24 0 54-32 42-8 15.6-40 15.6-48 0-16 12-48 6-48-24z" stroke="#000" stroke-width="2" fill="#fff"/><use xlink:href="#B" transform="matrix(1,0,0,1,1445,644) translate(59 59.0875)"/><path d="M1082 700h58.5" stroke="#000" stroke-width="2" fill="none"/><path d="M1082.03 701H1081v-2h1.03z"/><path d="M1155.76 700l-14.26 4.64v-9.28z" stroke="#000" stroke-width="2"/><path d="M1666 699h-51.77" stroke="#000" stroke-width="2" fill="none"/><path d="M1667 700h-1.03v-2h1.03z"/><path d="M1598.97 699l14.26-4.64v9.28z" stroke="#000" stroke-width="2"/><path d="M920 920h960v120H920z" stroke="#000" stroke-width="2" fill="#fff"/><use xlink:href="#C" transform="matrix(1,0,0,1,925.0000000000001,925) translate(435 59.0875)"/><path d="M1048 440c17.67 0 32 17.9 32 40s-14.33 40-32 40h-96c-17.67 0-32-17.9-32-40s14.33-40 32-40z" stroke="#000" stroke-width="2" fill="#fff"/><use xlink:href="#s" transform="matrix(1,0,0,1,925,445) translate(39.225 38.4625)"/><use xlink:href="#D" transform="matrix(1,0,0,1,925,445) translate(96.775 38.4625)"/><path d="M1796 420c17.67 0 32 17.9 32 40s-14.33 40-32 40h-96c-17.67 0-32-17.9-32-40s14.33-40 32-40z" stroke="#000" stroke-width="2" fill="#fff"/><use xlink:href="#w" transform="matrix(1,0,0,1,1673,425) translate(41.075 38.4625)"/><use xlink:href="#D" transform="matrix(1,0,0,1,1673,425) translate(94.92500000000001 38.4625)"/><path d="M1000 762v138.5" stroke="#000" stroke-width="2" fill="none"/><path d="M1001 762.03h-2V761h2z"/><path d="M1000 915.76l-4.64-14.26h9.28z" stroke="#000" stroke-width="2"/><use xlink:href="#E" transform="matrix(1,0,0,1,1008.0000000000001,819.4587122684659) translate(0.0049999999999954525 14.4)"/><path d="M1748 761v139.5" stroke="#000" stroke-width="2" fill="none"/><path d="M1749 761.03h-2V760h2z"/><path d="M1748 915.76l-4.64-14.26h9.28z" stroke="#000" stroke-width="2"/><use xlink:href="#F" transform="matrix(1,0,0,1,1623.5500000000002,819.4587122684659) translate(0.005000000000002558 14.4)"/><path d="M1056.04 1042v95.83" stroke="#000" stroke-width="2" fill="none"/><path d="M1057.04 1042.03h-2V1041h2z"/><path d="M1056.04 1153.1l-4.64-14.27h9.27z" stroke="#000" stroke-width="2"/><use xlink:href="#G" transform="matrix(1,0,0,1,972.1387087791754,1087.8666666666666) translate(0.005000000000002558 14.4)"/><path d="M1131.6 1042v96.08" stroke="#000" stroke-width="2" fill="none"/><path d="M1132.6 1042.03h-2V1041h2z"/><path d="M1131.6 1153.35l-4.64-14.27h9.27z" stroke="#000" stroke-width="2"/><use xlink:href="#H" transform="matrix(1,0,0,1,1139.598548248895,1080.320062818688) translate(0.004999999999999005 14.4)"/><path d="M1444 1357.33c8.84 0 16 26.87 16 60 0 33.14-7.16 60-16 60h-128c-8.84 0-16-26.86-16-60 0-33.13 7.16-60 16-60z" stroke="#000" stroke-width="2" fill="#fff"/><path d="M1444 1477.33c-8.84 0-16-26.86-16-60 0-33.13 7.16-60 16-60" stroke="#000" stroke-width="2" fill="none"/><use xlink:href="#I" transform="matrix(1,0,0,1,1305,1362.3333333333721) translate(25.049999999999997 38.4625)"/><use xlink:href="#J" transform="matrix(1,0,0,1,1305,1362.3333333333721) translate(19.074999999999996 60.0625)"/><use xlink:href="#K" transform="matrix(1,0,0,1,1305,1362.3333333333721) translate(26.049999999999997 81.66250000000001)"/><path d="M1179.5 1417.33h101" stroke="#000" stroke-width="2" fill="none"/><path d="M1164.24 1417.33l14.26-4.63v9.27zM1295.76 1417.33l-14.26 4.64v-9.27z" stroke="#000" stroke-width="2"/><path d="M808 1377.33c17.67 0 32 17.9 32 40s-14.33 40-32 40h-96c-17.67 0-32-17.9-32-40s14.33-40 32-40z" stroke="#000" stroke-width="2" fill="#fff"/><use xlink:href="#L" transform="matrix(1,0,0,1,685,1382.3333333333333) translate(25.574999999999996 27.525)"/><use xlink:href="#f" transform="matrix(1,0,0,1,685,1382.3333333333333) translate(48 49.125)"/><path d="M842 1417.33h138.5" stroke="#000" stroke-width="2" fill="none"/><path d="M842.03 1418.33h-1.1l.07-.98-.03-1.02h1.06z"/><path d="M995.76 1417.33l-14.26 4.64v-9.27z" stroke="#000" stroke-width="2"/><path d="M440 222v1275.63h266v-21.5" stroke="#000" stroke-width="2" fill="none"/><path d="M441 222.03h-2V221h2z"/><path d="M706 1460.86l4.64 14.27h-9.27z" stroke="#000" stroke-width="2"/><use xlink:href="#M" transform="matrix(1,0,0,1,448,1384.3584644944644) translate(0.005000000000002558 14.4)"/><path d="M1639 1357.33h160v120h-160z" stroke="#000" stroke-width="2" fill="#fff"/><use xlink:href="#N" transform="matrix(1,0,0,1,1643.9993777815253,1362.3333333333721) translate(21.099999999999994 59.0875)"/><use xlink:href="#p" transform="matrix(1,0,0,1,1643.9993777815253,1362.3333333333721) translate(70.95 59.0875)"/><path d="M1767 1157.33c17.67 0 32 17.9 32 40s-14.33 40-32 40h-96c-17.67 0-32-17.9-32-40s14.33-40 32-40z" stroke="#000" stroke-width="2" fill="#fff"/><use xlink:href="#q" transform="matrix(1,0,0,1,1643.9993777815253,1162.3333333333721) translate(18.549999999999997 27.525)"/><use xlink:href="#r" transform="matrix(1,0,0,1,1643.9993777815253,1162.3333333333721) translate(73.5 27.525)"/><use xlink:href="#f" transform="matrix(1,0,0,1,1643.9993777815253,1162.3333333333721) translate(48 49.125)"/><path d="M1719 1239.33v98.5" stroke="#000" stroke-width="2" fill="none"/><path d="M1720 1239.36h-2v-1.03h2z"/><path d="M1719 1353.1l-4.64-14.27h9.27z" stroke="#000" stroke-width="2"/><path d="M1695.04 1042v95.83" stroke="#000" stroke-width="2" fill="none"/><path d="M1696.04 1042.03h-2V1041h2z"/><path d="M1695.04 1153.1l-4.64-14.27h9.27z" stroke="#000" stroke-width="2"/><use xlink:href="#G" transform="matrix(1,0,0,1,1611.1380865607007,1087.8666666666861) translate(0.005000000000002558 14.4)"/><path d="M1783 1600c8.84 0 16 26.86 16 60s-7.16 60-16 60h-128c-8.84 0-16-26.86-16-60s7.16-60 16-60z" stroke="#000" stroke-width="2" fill="#fff"/><path d="M1783 1720c-8.84 0-16-26.86-16-60s7.16-60 16-60" stroke="#000" stroke-width="2" fill="none"/><use xlink:href="#I" transform="matrix(1,0,0,1,1643.9993777815253,1605) translate(25.049999999999997 38.4625)"/><use xlink:href="#J" transform="matrix(1,0,0,1,1643.9993777815253,1605) translate(19.074999999999996 60.0625)"/><use xlink:href="#K" transform="matrix(1,0,0,1,1643.9993777815253,1605) translate(26.049999999999997 81.66250000000001)"/><path d="M1770.6 1042v96.08" stroke="#000" stroke-width="2" fill="none"/><path d="M1771.6 1042.03h-2V1041h2z"/><path d="M1770.6 1153.35l-4.64-14.27h9.27z" stroke="#000" stroke-width="2"/><use xlink:href="#H" transform="matrix(1,0,0,1,1778.5979260304011,1080.3200628187033) translate(0.004999999999999005 14.4)"/><path d="M1719 1496.84v83.66" stroke="#000" stroke-width="2" fill="none"/><path d="M1719 1481.57l4.63 14.27h-9.27zM1719 1595.76l-4.64-14.26h9.27z" stroke="#000" stroke-width="2"/><path d="M320 1619h1295v-202.67h4.5v2h-2.5V1621H318v-611.73h2zM358 91h-38v896.67h-2V89h40zM1634.76 1417.33l-14.26 4.64v-9.27z"/><path d="M1638 1417.33l-18.5 6.02v-12.03zm-16.5 3.26l10.03-3.27-10.03-3.26zM359 91h-1.03v-2H359z"/><use xlink:href="#O" transform="matrix(1,0,0,1,253.625,987.6693072784367) translate(0.0049999999999954525 14.4)"/><path d="M56 104c-13.25 0-24-10.75-24-24 0-10.6 6.5-19.55 16.58-22.83C48 26 88 20 104 32c8-18 48-12 48 6 24-6 48 18 32 48 16 24 0 54-32 42-8 15.6-40 15.6-48 0-16 12-48 6-48-24z" stroke="#000" stroke-width="2" fill="#fff"/><use xlink:href="#B" transform="matrix(1,0,0,1,37,25) translate(59 59.0875)"/><path d="M450 40.5V40H210.16v15.7h-3.5" stroke="#000" stroke-width="2" fill="none"/><path d="M450 55.76l-4.64-14.26h9.28zM191.4 55.7l14.27-4.64v9.27z" stroke="#000" stroke-width="2"/><path d="M340.5 190h-65.64v65.82h-65.64" stroke="#000" stroke-width="2" fill="none"/><path d="M355.76 190l-14.26 4.64v-9.28zM193.95 255.82l14.27-4.64v9.27z" stroke="#000" stroke-width="2"/><path d="M57 264c-13.25 0-24-10.75-24-24 0-10.6 6.5-19.55 16.58-22.83C49 186 89 180 105 192c8-18 48-12 48 6 24-6 48 18 32 48 16 24 0 54-32 42-8 15.6-40 15.6-48 0-16 12-48 6-48-24z" stroke="#000" stroke-width="2" fill="#fff"/><g><use xlink:href="#B" transform="matrix(1,0,0,1,38,185) translate(59 59.0875)"/></g><path d="M2380 420c17.67 0 32 17.9 32 40s-14.33 40-32 40h-96c-17.67 0-32-17.9-32-40s14.33-40 32-40z" stroke="#000" stroke-width="2" fill="#fff"/><g><use xlink:href="#w" transform="matrix(1,0,0,1,2257,425) translate(9.599999999999994 38.4625)"/><use xlink:href="#P" transform="matrix(1,0,0,1,2257,425) translate(63.449999999999996 38.4625)"/><use xlink:href="#D" transform="matrix(1,0,0,1,2257,425) translate(126.4 38.4625)"/></g><path d="M522 190h21v30h1787v159h2v21.5" stroke="#000" stroke-width="2" fill="none"/><path d="M522.03 191H521v-2h1.03z"/><path d="M2332 415.76l-4.64-14.26h9.28z" stroke="#000" stroke-width="2"/><g><use xlink:href="#Q" transform="matrix(1,0,0,1,1924.2032262241526,194.4) translate(0.005000000000002558 14.4)"/></g><path d="M2252 650h160v100h-160z" stroke="#000" stroke-width="2" fill="#fff"/><g><use xlink:href="#w" transform="matrix(1,0,0,1,2257,655) translate(19.099999999999994 36.9)"/><use xlink:href="#r" transform="matrix(1,0,0,1,2257,655) translate(72.94999999999999 36.9)"/><use xlink:href="#h" transform="matrix(1,0,0,1,2257,655) translate(43.574999999999996 58.5)"/></g><path d="M2139.5 700h93" stroke="#000" stroke-width="2" fill="none"/><path d="M2124.24 700l14.26-4.64v9.28zM2247.76 700l-14.26 4.64v-9.28z" stroke="#000" stroke-width="2"/><path d="M2332 502v128.5" stroke="#000" stroke-width="2" fill="none"/><path d="M2333 502.03h-2V501h2z"/><path d="M2332 645.76l-4.64-14.26h9.28z" stroke="#000" stroke-width="2"/><path d="M1960 420h160v120h-160z" stroke="#000" stroke-width="2" fill="#fff"/><g><use xlink:href="#w" transform="matrix(1,0,0,1,1965,425) translate(12.125 59.0875)"/><use xlink:href="#R" transform="matrix(1,0,0,1,1965,425) translate(65.975 59.0875)"/></g><path d="M2040 638v-78.5" stroke="#000" stroke-width="2" fill="none"/><path d="M2041 639h-2v-1.03h2z"/><path d="M2040 544.24l4.64 14.26h-9.28z" stroke="#000" stroke-width="2"/><path d="M1958 480h-64v-20h-46.5" stroke="#000" stroke-width="2" fill="none"/><path d="M1959 481h-1.03v-2h1.03z"/><path d="M1832.24 460l14.26-4.64v9.28z" stroke="#000" stroke-width="2"/><defs><path d="M30-248c118-7 216 8 213 122C240-48 200 0 122 0H30v-248zM63-27c89 8 146-16 146-99s-60-101-146-95v194" id="S"/><path d="M24-231v-30h32v30H24zM24 0v-190h32V0H24" id="T"/><path d="M135-143c-3-34-86-38-87 0 15 53 115 12 119 90S17 21 10-45l28-5c4 36 97 45 98 0-10-56-113-15-118-90-4-57 82-63 122-42 12 7 21 19 24 35" id="U"/><path d="M96-169c-40 0-48 33-48 73s9 75 48 75c24 0 41-14 43-38l32 2c-6 37-31 61-74 61-59 0-76-41-82-99-10-93 101-131 147-64 4 7 5 14 7 22l-32 3c-4-21-16-35-41-35" id="V"/><path d="M100-194c62-1 85 37 85 99 1 63-27 99-86 99S16-35 15-95c0-66 28-99 85-99zM99-20c44 1 53-31 53-75 0-43-8-75-51-75s-53 32-53 75 10 74 51 75" id="W"/><path d="M114-163C36-179 61-72 57 0H25l-1-190h30c1 12-1 29 2 39 6-27 23-49 58-41v29" id="X"/><path d="M85-194c31 0 48 13 60 33l-1-100h32l1 261h-30c-2-10 0-23-3-31C134-8 116 4 85 4 32 4 16-35 15-94c0-66 23-100 70-100zm9 24c-40 0-46 34-46 75 0 40 6 74 45 74 42 0 51-32 51-76 0-42-9-74-50-73" id="Y"/><g id="a"><use transform="matrix(0.05,0,0,0.05,0,0)" xlink:href="#S"/><use transform="matrix(0.05,0,0,0.05,12.950000000000001,0)" xlink:href="#T"/><use transform="matrix(0.05,0,0,0.05,16.900000000000002,0)" xlink:href="#U"/><use transform="matrix(0.05,0,0,0.05,25.900000000000002,0)" xlink:href="#V"/><use transform="matrix(0.05,0,0,0.05,34.900000000000006,0)" xlink:href="#W"/><use transform="matrix(0.05,0,0,0.05,44.900000000000006,0)" xlink:href="#X"/><use transform="matrix(0.05,0,0,0.05,50.85000000000001,0)" xlink:href="#Y"/></g><path d="M233-177c-1 41-23 64-60 70L243 0h-38l-65-103H63V0H30v-248c88 3 205-21 203 71zM63-129c60-2 137 13 137-47 0-61-80-42-137-45v92" id="Z"/><path d="M100-194c63 0 86 42 84 106H49c0 40 14 67 53 68 26 1 43-12 49-29l28 8c-11 28-37 45-77 45C44 4 14-33 15-96c1-61 26-98 85-98zm52 81c6-60-76-77-97-28-3 7-6 17-6 28h103" id="aa"/><path d="M108 0H70L1-190h34L89-25l56-165h34" id="ab"/><g id="b"><use transform="matrix(0.05,0,0,0.05,0,0)" xlink:href="#Z"/><use transform="matrix(0.05,0,0,0.05,12.950000000000001,0)" xlink:href="#aa"/><use transform="matrix(0.05,0,0,0.05,22.950000000000003,0)" xlink:href="#V"/><use transform="matrix(0.05,0,0,0.05,31.950000000000003,0)" xlink:href="#aa"/><use transform="matrix(0.05,0,0,0.05,41.95,0)" xlink:href="#T"/><use transform="matrix(0.05,0,0,0.05,45.900000000000006,0)" xlink:href="#ab"/><use transform="matrix(0.05,0,0,0.05,54.900000000000006,0)" xlink:href="#aa"/><use transform="matrix(0.05,0,0,0.05,64.9,0)" xlink:href="#X"/></g><path d="M30 0v-248h187v28H63v79h144v27H63v87h162V0H30" id="ac"/><path d="M16-82v-28h88v28H16" id="ad"/><path d="M240 0l2-218c-23 76-54 145-80 218h-23L58-218 59 0H30v-248h44l77 211c21-75 51-140 76-211h43V0h-30" id="ae"/><path d="M141-36C126-15 110 5 73 4 37 3 15-17 15-53c-1-64 63-63 125-63 3-35-9-54-41-54-24 1-41 7-42 31l-33-3c5-37 33-52 76-52 45 0 72 20 72 64v82c-1 20 7 32 28 27v20c-31 9-61-2-59-35zM48-53c0 20 12 33 32 33 41-3 63-29 60-74-43 2-92-5-92 41" id="af"/><path d="M24 0v-261h32V0H24" id="ag"/><g id="c"><use transform="matrix(0.05,0,0,0.05,0,0)" xlink:href="#ac"/><use transform="matrix(0.05,0,0,0.05,12,0)" xlink:href="#ad"/><use transform="matrix(0.05,0,0,0.05,17.95,0)" xlink:href="#ae"/><use transform="matrix(0.05,0,0,0.05,32.9,0)" xlink:href="#af"/><use transform="matrix(0.05,0,0,0.05,42.9,0)" xlink:href="#T"/><use transform="matrix(0.05,0,0,0.05,46.85,0)" xlink:href="#ag"/></g><path d="M177-190C167-65 218 103 67 71c-23-6-38-20-44-43l32-5c15 47 100 32 89-28v-30C133-14 115 1 83 1 29 1 15-40 15-95c0-56 16-97 71-98 29-1 48 16 59 35 1-10 0-23 2-32h30zM94-22c36 0 50-32 50-73 0-42-14-75-50-75-39 0-46 34-46 75s6 73 46 73" id="ah"/><path d="M59-47c-2 24 18 29 38 22v24C64 9 27 4 27-40v-127H5v-23h24l9-43h21v43h35v23H59v120" id="ai"/><path d="M117-194c89-4 53 116 60 194h-32v-121c0-31-8-49-39-48C34-167 62-67 57 0H25l-1-190h30c1 10-1 24 2 32 11-22 29-35 61-36" id="aj"/><g id="d"><use transform="matrix(0.05,0,0,0.05,0,0)" xlink:href="#Z"/><use transform="matrix(0.05,0,0,0.05,12.950000000000001,0)" xlink:href="#aa"/><use transform="matrix(0.05,0,0,0.05,22.950000000000003,0)" xlink:href="#ah"/><use transform="matrix(0.05,0,0,0.05,32.95,0)" xlink:href="#T"/><use transform="matrix(0.05,0,0,0.05,36.900000000000006,0)" xlink:href="#U"/><use transform="matrix(0.05,0,0,0.05,45.900000000000006,0)" xlink:href="#ai"/><use transform="matrix(0.05,0,0,0.05,50.900000000000006,0)" xlink:href="#X"/><use transform="matrix(0.05,0,0,0.05,56.85,0)" xlink:href="#af"/><use transform="matrix(0.05,0,0,0.05,66.85000000000001,0)" xlink:href="#ai"/><use transform="matrix(0.05,0,0,0.05,71.85000000000001,0)" xlink:href="#T"/><use transform="matrix(0.05,0,0,0.05,75.80000000000001,0)" xlink:href="#W"/><use transform="matrix(0.05,0,0,0.05,85.80000000000001,0)" xlink:href="#aj"/></g><g id="e"><use transform="matrix(0.05,0,0,0.05,0,0)" xlink:href="#Z"/><use transform="matrix(0.05,0,0,0.05,12.950000000000001,0)" xlink:href="#aa"/><use transform="matrix(0.05,0,0,0.05,22.950000000000003,0)" xlink:href="#ah"/><use transform="matrix(0.05,0,0,0.05,32.95,0)" xlink:href="#T"/><use transform="matrix(0.05,0,0,0.05,36.900000000000006,0)" xlink:href="#U"/><use transform="matrix(0.05,0,0,0.05,45.900000000000006,0)" xlink:href="#ai"/><use transform="matrix(0.05,0,0,0.05,50.900000000000006,0)" xlink:href="#aa"/><use transform="matrix(0.05,0,0,0.05,60.900000000000006,0)" xlink:href="#X"/></g><path d="M140-251c81 0 123 46 123 126C263-53 228-8 163 1c7 30 30 48 69 40v23c-55 16-95-15-103-61C56-3 17-48 17-125c0-80 42-126 123-126zm0 227c63 0 89-41 89-101s-29-99-89-99c-61 0-89 39-89 99S79-25 140-24" id="ak"/><path d="M84 4C-5 8 30-112 23-190h32v120c0 31 7 50 39 49 72-2 45-101 50-169h31l1 190h-30c-1-10 1-25-2-33-11 22-28 36-60 37" id="al"/><g id="f"><use transform="matrix(0.05,0,0,0.05,0,0)" xlink:href="#ak"/><use transform="matrix(0.05,0,0,0.05,14,0)" xlink:href="#al"/><use transform="matrix(0.05,0,0,0.05,24,0)" xlink:href="#aa"/><use transform="matrix(0.05,0,0,0.05,34,0)" xlink:href="#al"/><use transform="matrix(0.05,0,0,0.05,44,0)" xlink:href="#aa"/></g><g id="g"><use transform="matrix(0.05,0,0,0.05,0,0)" xlink:href="#Z"/><use transform="matrix(0.05,0,0,0.05,12.950000000000001,0)" xlink:href="#aa"/><use transform="matrix(0.05,0,0,0.05,22.950000000000003,0)" xlink:href="#ah"/><use transform="matrix(0.05,0,0,0.05,32.95,0)" xlink:href="#T"/><use transform="matrix(0.05,0,0,0.05,36.900000000000006,0)" xlink:href="#U"/><use transform="matrix(0.05,0,0,0.05,45.900000000000006,0)" xlink:href="#ai"/><use transform="matrix(0.05,0,0,0.05,50.900000000000006,0)" xlink:href="#X"/><use transform="matrix(0.05,0,0,0.05,56.85,0)" xlink:href="#af"/><use transform="matrix(0.05,0,0,0.05,66.85000000000001,0)" xlink:href="#ai"/><use transform="matrix(0.05,0,0,0.05,71.85000000000001,0)" xlink:href="#T"/><use transform="matrix(0.05,0,0,0.05,75.80000000000001,0)" xlink:href="#W"/><use transform="matrix(0.05,0,0,0.05,85.80000000000001,0)" xlink:href="#aj"/></g><path d="M197 0v-115H63V0H30v-248h33v105h134v-105h34V0h-34" id="am"/><g id="h"><use transform="matrix(0.05,0,0,0.05,0,0)" xlink:href="#am"/><use transform="matrix(0.05,0,0,0.05,12.950000000000001,0)" xlink:href="#af"/><use transform="matrix(0.05,0,0,0.05,22.950000000000003,0)" xlink:href="#aj"/><use transform="matrix(0.05,0,0,0.05,32.95,0)" xlink:href="#Y"/><use transform="matrix(0.05,0,0,0.05,42.95,0)" xlink:href="#ag"/><use transform="matrix(0.05,0,0,0.05,46.900000000000006,0)" xlink:href="#aa"/><use transform="matrix(0.05,0,0,0.05,56.900000000000006,0)" xlink:href="#X"/></g><path d="M160-131c35 5 61 23 61 61C221 17 115-2 30 0v-248c76 3 177-17 177 60 0 33-19 50-47 57zm-97-11c50-1 110 9 110-42 0-47-63-36-110-37v79zm0 115c55-2 124 14 124-45 0-56-70-42-124-44v89" id="an"/><path d="M33-154v-36h34v36H33zM33 0v-36h34V0H33" id="ao"/><g id="i"><use transform="matrix(0.05,0,0,0.05,0,0)" xlink:href="#S"/><use transform="matrix(0.05,0,0,0.05,12.950000000000001,0)" xlink:href="#an"/><use transform="matrix(0.05,0,0,0.05,24.950000000000003,0)" xlink:href="#ao"/></g><path d="M143 4C61 4 22-44 18-125c-5-107 100-154 193-111 17 8 29 25 37 43l-32 9c-13-25-37-40-76-40-61 0-88 39-88 99 0 61 29 100 91 101 35 0 62-11 79-27v-45h-74v-28h105v86C228-13 192 4 143 4" id="ap"/><path d="M115-194c55 1 70 41 70 98S169 2 115 4C84 4 66-9 55-30l1 105H24l-1-265h31l2 30c10-21 28-34 59-34zm-8 174c40 0 45-34 45-75s-6-73-45-74c-42 0-51 32-51 76 0 43 10 73 51 73" id="aq"/><g id="j"><use transform="matrix(0.05,0,0,0.05,0,0)" xlink:href="#ap"/><use transform="matrix(0.05,0,0,0.05,14,0)" xlink:href="#X"/><use transform="matrix(0.05,0,0,0.05,19.95,0)" xlink:href="#al"/><use transform="matrix(0.05,0,0,0.05,29.950000000000003,0)" xlink:href="#aq"/><use transform="matrix(0.05,0,0,0.05,39.95,0)" xlink:href="#aq"/><use transform="matrix(0.05,0,0,0.05,49.95,0)" xlink:href="#aa"/><use transform="matrix(0.05,0,0,0.05,59.95,0)" xlink:href="#aj"/></g><path d="M33 0v-248h34V0H33" id="ar"/><path d="M47-170H22l-4-78h33" id="as"/><g id="k"><use transform="matrix(0.05,0,0,0.05,0,0)" xlink:href="#ar"/><use transform="matrix(0.05,0,0,0.05,5,0)" xlink:href="#S"/><use transform="matrix(0.05,0,0,0.05,17.950000000000003,0)" xlink:href="#as"/><use transform="matrix(0.05,0,0,0.05,21.35,0)" xlink:href="#U"/></g><path d="M210-169c-67 3-38 105-44 169h-31v-121c0-29-5-50-35-48C34-165 62-65 56 0H25l-1-190h30c1 10-1 24 2 32 10-44 99-50 107 0 11-21 27-35 58-36 85-2 47 119 55 194h-31v-121c0-29-5-49-35-48" id="at"/><path d="M33 0v-38h34V0H33" id="au"/><g id="l"><use transform="matrix(0.05,0,0,0.05,0,0)" xlink:href="#ac"/><use transform="matrix(0.05,0,0,0.05,12,0)" xlink:href="#at"/><use transform="matrix(0.05,0,0,0.05,26.950000000000003,0)" xlink:href="#af"/><use transform="matrix(0.05,0,0,0.05,36.95,0)" xlink:href="#T"/><use transform="matrix(0.05,0,0,0.05,40.900000000000006,0)" xlink:href="#ag"/><use transform="matrix(0.05,0,0,0.05,44.85000000000001,0)" xlink:href="#au"/><use transform="matrix(0.05,0,0,0.05,49.85000000000001,0)" xlink:href="#X"/><use transform="matrix(0.05,0,0,0.05,55.80000000000001,0)" xlink:href="#aa"/><use transform="matrix(0.05,0,0,0.05,65.80000000000001,0)" xlink:href="#ah"/><use transform="matrix(0.05,0,0,0.05,75.80000000000001,0)" xlink:href="#T"/><use transform="matrix(0.05,0,0,0.05,79.75000000000001,0)" xlink:href="#U"/><use transform="matrix(0.05,0,0,0.05,88.75000000000001,0)" xlink:href="#ai"/><use transform="matrix(0.05,0,0,0.05,93.75000000000001,0)" xlink:href="#aa"/><use transform="matrix(0.05,0,0,0.05,103.75,0)" xlink:href="#X"/></g><path d="M68-38c1 34 0 65-14 84H32c9-13 17-26 17-46H33v-38h35" id="av"/><g id="m"><use transform="matrix(0.05,0,0,0.05,0,0)" xlink:href="#S"/><use transform="matrix(0.05,0,0,0.05,12.950000000000001,0)" xlink:href="#T"/><use transform="matrix(0.05,0,0,0.05,16.900000000000002,0)" xlink:href="#U"/><use transform="matrix(0.05,0,0,0.05,25.900000000000002,0)" xlink:href="#V"/><use transform="matrix(0.05,0,0,0.05,34.900000000000006,0)" xlink:href="#W"/><use transform="matrix(0.05,0,0,0.05,44.900000000000006,0)" xlink:href="#X"/><use transform="matrix(0.05,0,0,0.05,50.85000000000001,0)" xlink:href="#Y"/><use transform="matrix(0.05,0,0,0.05,60.85,0)" xlink:href="#av"/><use transform="matrix(0.05,0,0,0.05,65.85000000000001,0)" xlink:href="#X"/><use transform="matrix(0.05,0,0,0.05,71.80000000000001,0)" xlink:href="#aa"/><use transform="matrix(0.05,0,0,0.05,81.80000000000001,0)" xlink:href="#ah"/><use transform="matrix(0.05,0,0,0.05,91.80000000000001,0)" xlink:href="#T"/><use transform="matrix(0.05,0,0,0.05,95.75000000000001,0)" xlink:href="#U"/><use transform="matrix(0.05,0,0,0.05,104.75,0)" xlink:href="#ai"/><use transform="matrix(0.05,0,0,0.05,109.75,0)" xlink:href="#aa"/><use transform="matrix(0.05,0,0,0.05,119.75,0)" xlink:href="#X"/></g><path d="M212-179c-10-28-35-45-73-45-59 0-87 40-87 99 0 60 29 101 89 101 43 0 62-24 78-52l27 14C228-24 195 4 139 4 59 4 22-46 18-125c-6-104 99-153 187-111 19 9 31 26 39 46" id="aw"/><g id="n"><use transform="matrix(0.05,0,0,0.05,0,0)" xlink:href="#aw"/><use transform="matrix(0.05,0,0,0.05,12.950000000000001,0)" xlink:href="#W"/><use transform="matrix(0.05,0,0,0.05,22.950000000000003,0)" xlink:href="#aj"/><use transform="matrix(0.05,0,0,0.05,32.95,0)" xlink:href="#U"/><use transform="matrix(0.05,0,0,0.05,41.95,0)" xlink:href="#al"/><use transform="matrix(0.05,0,0,0.05,51.95,0)" xlink:href="#at"/><use transform="matrix(0.05,0,0,0.05,66.9,0)" xlink:href="#aa"/><use transform="matrix(0.05,0,0,0.05,76.9,0)" xlink:href="#U"/></g><path d="M80-196l47-18 7 23-49 13 32 44-20 13-27-46-27 45-21-12 33-44-49-13 8-23 47 19-2-53h23" id="ax"/><g id="o"><use transform="matrix(0.05,0,0,0.05,0,0)" xlink:href="#ax"/><use transform="matrix(0.05,0,0,0.05,7,0)" xlink:href="#au"/><use transform="matrix(0.05,0,0,0.05,12,0)" xlink:href="#X"/><use transform="matrix(0.05,0,0,0.05,17.95,0)" xlink:href="#aa"/><use transform="matrix(0.05,0,0,0.05,27.950000000000003,0)" xlink:href="#ah"/><use transform="matrix(0.05,0,0,0.05,37.95,0)" xlink:href="#T"/><use transform="matrix(0.05,0,0,0.05,41.900000000000006,0)" xlink:href="#U"/><use transform="matrix(0.05,0,0,0.05,50.900000000000006,0)" xlink:href="#ai"/><use transform="matrix(0.05,0,0,0.05,55.900000000000006,0)" xlink:href="#aa"/><use transform="matrix(0.05,0,0,0.05,65.9,0)" xlink:href="#X"/></g><path d="M185-189c-5-48-123-54-124 2 14 75 158 14 163 119 3 78-121 87-175 55-17-10-28-26-33-46l33-7c5 56 141 63 141-1 0-78-155-14-162-118-5-82 145-84 179-34 5 7 8 16 11 25" id="ay"/><g id="p"><use transform="matrix(0.05,0,0,0.05,0,0)" xlink:href="#ay"/><use transform="matrix(0.05,0,0,0.05,12,0)" xlink:href="#aa"/><use transform="matrix(0.05,0,0,0.05,22,0)" xlink:href="#aj"/><use transform="matrix(0.05,0,0,0.05,32,0)" xlink:href="#Y"/><use transform="matrix(0.05,0,0,0.05,42,0)" xlink:href="#aa"/><use transform="matrix(0.05,0,0,0.05,52,0)" xlink:href="#X"/></g><g id="q"><use transform="matrix(0.05,0,0,0.05,0,0)" xlink:href="#ap"/><use transform="matrix(0.05,0,0,0.05,14,0)" xlink:href="#X"/><use transform="matrix(0.05,0,0,0.05,19.95,0)" xlink:href="#W"/><use transform="matrix(0.05,0,0,0.05,29.950000000000003,0)" xlink:href="#al"/><use transform="matrix(0.05,0,0,0.05,39.95,0)" xlink:href="#aq"/></g><path d="M232-93c-1 65-40 97-104 97C67 4 28-28 28-90v-158h33c8 89-33 224 67 224 102 0 64-133 71-224h33v155" id="az"/><g id="r"><use transform="matrix(0.05,0,0,0.05,0,0)" xlink:href="#az"/><use transform="matrix(0.05,0,0,0.05,12.950000000000001,0)" xlink:href="#aq"/><use transform="matrix(0.05,0,0,0.05,22.950000000000003,0)" xlink:href="#Y"/><use transform="matrix(0.05,0,0,0.05,32.95,0)" xlink:href="#af"/><use transform="matrix(0.05,0,0,0.05,42.95,0)" xlink:href="#ai"/><use transform="matrix(0.05,0,0,0.05,47.95,0)" xlink:href="#aa"/></g><path d="M266 0h-40l-56-210L115 0H75L2-248h35L96-30l15-64 43-154h32l59 218 59-218h35" id="aA"/><g id="s"><use transform="matrix(0.05,0,0,0.05,0,0)" xlink:href="#aA"/><use transform="matrix(0.05,0,0,0.05,16.599999999999998,0)" xlink:href="#aa"/><use transform="matrix(0.05,0,0,0.05,26.599999999999994,0)" xlink:href="#ai"/><use transform="matrix(0.05,0,0,0.05,31.599999999999994,0)" xlink:href="#ai"/><use transform="matrix(0.05,0,0,0.05,36.599999999999994,0)" xlink:href="#aa"/><use transform="matrix(0.05,0,0,0.05,46.599999999999994,0)" xlink:href="#X"/></g><path d="M106-169C34-169 62-67 57 0H25v-261h32l-1 103c12-21 28-36 61-36 89 0 53 116 60 194h-32v-121c2-32-8-49-39-48" id="aB"/><g id="t"><use transform="matrix(0.05,0,0,0.05,0,0)" xlink:href="#aA"/><use transform="matrix(0.05,0,0,0.05,16.599999999999998,0)" xlink:href="#aa"/><use transform="matrix(0.05,0,0,0.05,26.599999999999994,0)" xlink:href="#af"/><use transform="matrix(0.05,0,0,0.05,36.599999999999994,0)" xlink:href="#ai"/><use transform="matrix(0.05,0,0,0.05,41.599999999999994,0)" xlink:href="#aB"/><use transform="matrix(0.05,0,0,0.05,51.599999999999994,0)" xlink:href="#aa"/><use transform="matrix(0.05,0,0,0.05,61.599999999999994,0)" xlink:href="#X"/><use transform="matrix(0.05,0,0,0.05,66.55,0)" xlink:href="#au"/><use transform="matrix(0.05,0,0,0.05,71.55,0)" xlink:href="#ag"/><use transform="matrix(0.05,0,0,0.05,75.5,0)" xlink:href="#W"/><use transform="matrix(0.05,0,0,0.05,85.5,0)" xlink:href="#V"/><use transform="matrix(0.05,0,0,0.05,94.5,0)" xlink:href="#af"/><use transform="matrix(0.05,0,0,0.05,104.5,0)" xlink:href="#ai"/><use transform="matrix(0.05,0,0,0.05,109.5,0)" xlink:href="#T"/><use transform="matrix(0.05,0,0,0.05,113.45,0)" xlink:href="#W"/><use transform="matrix(0.05,0,0,0.05,123.45,0)" xlink:href="#aj"/></g><path d="M101-234c-31-9-42 10-38 44h38v23H63V0H32v-167H5v-23h27c-7-52 17-82 69-68v24" id="aC"/><g id="u"><use transform="matrix(0.05,0,0,0.05,0,0)" xlink:href="#ai"/><use transform="matrix(0.05,0,0,0.05,5,0)" xlink:href="#X"/><use transform="matrix(0.05,0,0,0.05,10.95,0)" xlink:href="#af"/><use transform="matrix(0.05,0,0,0.05,20.95,0)" xlink:href="#aC"/><use transform="matrix(0.05,0,0,0.05,25.599999999999998,0)" xlink:href="#aC"/><use transform="matrix(0.05,0,0,0.05,30.599999999999994,0)" xlink:href="#T"/><use transform="matrix(0.05,0,0,0.05,34.55,0)" xlink:href="#V"/><use transform="matrix(0.05,0,0,0.05,43.55,0)" xlink:href="#au"/><use transform="matrix(0.05,0,0,0.05,48.55,0)" xlink:href="#Z"/><use transform="matrix(0.05,0,0,0.05,61.5,0)" xlink:href="#W"/><use transform="matrix(0.05,0,0,0.05,71.5,0)" xlink:href="#al"/><use transform="matrix(0.05,0,0,0.05,81.5,0)" xlink:href="#ai"/><use transform="matrix(0.05,0,0,0.05,86.5,0)" xlink:href="#aa"/></g><path d="M206 0h-36l-40-164L89 0H53L-1-190h32L70-26l43-164h34l41 164 42-164h31" id="aD"/><g id="v"><use transform="matrix(0.05,0,0,0.05,0,0)" xlink:href="#Y"/><use transform="matrix(0.05,0,0,0.05,10,0)" xlink:href="#T"/><use transform="matrix(0.05,0,0,0.05,13.949999999999998,0)" xlink:href="#U"/><use transform="matrix(0.05,0,0,0.05,22.95,0)" xlink:href="#V"/><use transform="matrix(0.05,0,0,0.05,31.950000000000003,0)" xlink:href="#W"/><use transform="matrix(0.05,0,0,0.05,41.95,0)" xlink:href="#X"/><use transform="matrix(0.05,0,0,0.05,47.900000000000006,0)" xlink:href="#Y"/><use transform="matrix(0.05,0,0,0.05,57.900000000000006,0)" xlink:href="#au"/><use transform="matrix(0.05,0,0,0.05,62.900000000000006,0)" xlink:href="#aj"/><use transform="matrix(0.05,0,0,0.05,72.9,0)" xlink:href="#aa"/><use transform="matrix(0.05,0,0,0.05,82.9,0)" xlink:href="#aD"/><use transform="matrix(0.05,0,0,0.05,95.85000000000001,0)" xlink:href="#ap"/><use transform="matrix(0.05,0,0,0.05,109.85000000000001,0)" xlink:href="#X"/><use transform="matrix(0.05,0,0,0.05,115.80000000000001,0)" xlink:href="#W"/><use transform="matrix(0.05,0,0,0.05,125.80000000000001,0)" xlink:href="#al"/><use transform="matrix(0.05,0,0,0.05,135.8,0)" xlink:href="#aq"/></g><path d="M127-220V0H93v-220H8v-28h204v28h-85" id="aE"/><g id="w"><use transform="matrix(0.05,0,0,0.05,0,0)" xlink:href="#aE"/><use transform="matrix(0.05,0,0,0.05,10.3,0)" xlink:href="#X"/><use transform="matrix(0.05,0,0,0.05,16.25,0)" xlink:href="#af"/><use transform="matrix(0.05,0,0,0.05,26.25,0)" xlink:href="#aC"/><use transform="matrix(0.05,0,0,0.05,30.899999999999995,0)" xlink:href="#aC"/><use transform="matrix(0.05,0,0,0.05,35.9,0)" xlink:href="#T"/><use transform="matrix(0.05,0,0,0.05,39.85,0)" xlink:href="#V"/></g><g id="x"><use transform="matrix(0.05,0,0,0.05,0,0)" xlink:href="#ap"/><use transform="matrix(0.05,0,0,0.05,14,0)" xlink:href="#X"/><use transform="matrix(0.05,0,0,0.05,19.95,0)" xlink:href="#W"/><use transform="matrix(0.05,0,0,0.05,29.950000000000003,0)" xlink:href="#al"/><use transform="matrix(0.05,0,0,0.05,39.95,0)" xlink:href="#aq"/></g><g id="y"><use transform="matrix(0.05,0,0,0.05,0,0)" xlink:href="#ar"/><use transform="matrix(0.05,0,0,0.05,5,0)" xlink:href="#S"/><use transform="matrix(0.05,0,0,0.05,17.950000000000003,0)" xlink:href="#as"/><use transform="matrix(0.05,0,0,0.05,21.35,0)" xlink:href="#U"/></g><path d="M63-220v92h138v28H63V0H30v-248h175v28H63" id="aF"/><g id="z"><use transform="matrix(0.05,0,0,0.05,0,0)" xlink:href="#aF"/><use transform="matrix(0.05,0,0,0.05,10.950000000000001,0)" xlink:href="#W"/><use transform="matrix(0.05,0,0,0.05,20.950000000000003,0)" xlink:href="#X"/><use transform="matrix(0.05,0,0,0.05,26.900000000000002,0)" xlink:href="#aa"/><use transform="matrix(0.05,0,0,0.05,36.900000000000006,0)" xlink:href="#V"/><use transform="matrix(0.05,0,0,0.05,45.900000000000006,0)" xlink:href="#af"/><use transform="matrix(0.05,0,0,0.05,55.900000000000006,0)" xlink:href="#U"/><use transform="matrix(0.05,0,0,0.05,64.9,0)" xlink:href="#ai"/></g><path d="M26 75v-336h71v23H56V52h41v23H26" id="aG"/><path d="M3 75V52h41v-290H3v-23h71V75H3" id="aH"/><g id="A"><use transform="matrix(0.05,0,0,0.05,0,0)" xlink:href="#aG"/><use transform="matrix(0.05,0,0,0.05,5,0)" xlink:href="#Z"/><use transform="matrix(0.05,0,0,0.05,17.950000000000003,0)" xlink:href="#W"/><use transform="matrix(0.05,0,0,0.05,27.950000000000003,0)" xlink:href="#al"/><use transform="matrix(0.05,0,0,0.05,37.95,0)" xlink:href="#ai"/><use transform="matrix(0.05,0,0,0.05,42.95,0)" xlink:href="#aa"/><use transform="matrix(0.05,0,0,0.05,52.95,0)" xlink:href="#U"/><use transform="matrix(0.05,0,0,0.05,61.95,0)" xlink:href="#aH"/></g><path d="M205 0l-28-72H64L36 0H1l101-248h38L239 0h-34zm-38-99l-47-123c-12 45-31 82-46 123h93" id="aI"/><path d="M30-248c87 1 191-15 191 75 0 78-77 80-158 76V0H30v-248zm33 125c57 0 124 11 124-50 0-59-68-47-124-48v98" id="aJ"/><g id="B"><use transform="matrix(0.05,0,0,0.05,0,0)" xlink:href="#aI"/><use transform="matrix(0.05,0,0,0.05,12,0)" xlink:href="#aJ"/><use transform="matrix(0.05,0,0,0.05,24,0)" xlink:href="#ar"/></g><path d="M141 0L90-78 38 0H4l68-98-65-92h35l48 74 47-74h35l-64 92 68 98h-35" id="aK"/><g id="C"><use transform="matrix(0.05,0,0,0.05,0,0)" xlink:href="#ac"/><use transform="matrix(0.05,0,0,0.05,12,0)" xlink:href="#aK"/><use transform="matrix(0.05,0,0,0.05,21,0)" xlink:href="#V"/><use transform="matrix(0.05,0,0,0.05,30,0)" xlink:href="#aB"/><use transform="matrix(0.05,0,0,0.05,40,0)" xlink:href="#af"/><use transform="matrix(0.05,0,0,0.05,50,0)" xlink:href="#aj"/><use transform="matrix(0.05,0,0,0.05,60,0)" xlink:href="#ah"/><use transform="matrix(0.05,0,0,0.05,70,0)" xlink:href="#aa"/></g><use transform="matrix(0.05,0,0,0.05,0,0)" xlink:href="#ak" id="D"/><g id="E"><use transform="matrix(0.05,0,0,0.05,0,0)" xlink:href="#ap"/><use transform="matrix(0.05,0,0,0.05,14,0)" xlink:href="#X"/><use transform="matrix(0.05,0,0,0.05,19.95,0)" xlink:href="#W"/><use transform="matrix(0.05,0,0,0.05,29.950000000000003,0)" xlink:href="#al"/><use transform="matrix(0.05,0,0,0.05,39.95,0)" xlink:href="#aq"/><use transform="matrix(0.05,0,0,0.05,49.95,0)" xlink:href="#ar"/><use transform="matrix(0.05,0,0,0.05,54.95,0)" xlink:href="#S"/><use transform="matrix(0.05,0,0,0.05,67.9,0)" xlink:href="#au"/><use transform="matrix(0.05,0,0,0.05,72.9,0)" xlink:href="#aD"/><use transform="matrix(0.05,0,0,0.05,85.85000000000001,0)" xlink:href="#aa"/><use transform="matrix(0.05,0,0,0.05,95.85000000000001,0)" xlink:href="#af"/><use transform="matrix(0.05,0,0,0.05,105.85000000000001,0)" xlink:href="#ai"/><use transform="matrix(0.05,0,0,0.05,110.85000000000001,0)" xlink:href="#aB"/><use transform="matrix(0.05,0,0,0.05,120.85000000000001,0)" xlink:href="#aa"/><use transform="matrix(0.05,0,0,0.05,130.85000000000002,0)" xlink:href="#X"/></g><g id="F"><use transform="matrix(0.05,0,0,0.05,0,0)" xlink:href="#ap"/><use transform="matrix(0.05,0,0,0.05,14,0)" xlink:href="#X"/><use transform="matrix(0.05,0,0,0.05,19.95,0)" xlink:href="#W"/><use transform="matrix(0.05,0,0,0.05,29.950000000000003,0)" xlink:href="#al"/><use transform="matrix(0.05,0,0,0.05,39.95,0)" xlink:href="#aq"/><use transform="matrix(0.05,0,0,0.05,49.95,0)" xlink:href="#ar"/><use transform="matrix(0.05,0,0,0.05,54.95,0)" xlink:href="#S"/><use transform="matrix(0.05,0,0,0.05,67.9,0)" xlink:href="#au"/><use transform="matrix(0.05,0,0,0.05,72.9,0)" xlink:href="#ai"/><use transform="matrix(0.05,0,0,0.05,77.9,0)" xlink:href="#X"/><use transform="matrix(0.05,0,0,0.05,83.85000000000001,0)" xlink:href="#af"/><use transform="matrix(0.05,0,0,0.05,93.85000000000001,0)" xlink:href="#aC"/><use transform="matrix(0.05,0,0,0.05,98.50000000000001,0)" xlink:href="#aC"/><use transform="matrix(0.05,0,0,0.05,103.5,0)" xlink:href="#T"/><use transform="matrix(0.05,0,0,0.05,107.45,0)" xlink:href="#V"/></g><g id="G"><use transform="matrix(0.05,0,0,0.05,0,0)" xlink:href="#ax"/><use transform="matrix(0.05,0,0,0.05,7,0)" xlink:href="#au"/><use transform="matrix(0.05,0,0,0.05,12,0)" xlink:href="#aD"/><use transform="matrix(0.05,0,0,0.05,24.950000000000003,0)" xlink:href="#aa"/><use transform="matrix(0.05,0,0,0.05,34.95,0)" xlink:href="#af"/><use transform="matrix(0.05,0,0,0.05,44.95,0)" xlink:href="#ai"/><use transform="matrix(0.05,0,0,0.05,49.95,0)" xlink:href="#aB"/><use transform="matrix(0.05,0,0,0.05,59.95,0)" xlink:href="#aa"/><use transform="matrix(0.05,0,0,0.05,69.95,0)" xlink:href="#X"/></g><g id="H"><use transform="matrix(0.05,0,0,0.05,0,0)" xlink:href="#ax"/><use transform="matrix(0.05,0,0,0.05,7,0)" xlink:href="#ai"/><use transform="matrix(0.05,0,0,0.05,12,0)" xlink:href="#X"/><use transform="matrix(0.05,0,0,0.05,17.95,0)" xlink:href="#af"/><use transform="matrix(0.05,0,0,0.05,27.950000000000003,0)" xlink:href="#aC"/><use transform="matrix(0.05,0,0,0.05,32.599999999999994,0)" xlink:href="#aC"/><use transform="matrix(0.05,0,0,0.05,37.599999999999994,0)" xlink:href="#T"/><use transform="matrix(0.05,0,0,0.05,41.55,0)" xlink:href="#V"/></g><g id="I"><use transform="matrix(0.05,0,0,0.05,0,0)" xlink:href="#ap"/><use transform="matrix(0.05,0,0,0.05,14,0)" xlink:href="#X"/><use transform="matrix(0.05,0,0,0.05,19.95,0)" xlink:href="#W"/><use transform="matrix(0.05,0,0,0.05,29.950000000000003,0)" xlink:href="#al"/><use transform="matrix(0.05,0,0,0.05,39.95,0)" xlink:href="#aq"/><use transform="matrix(0.05,0,0,0.05,49.95,0)" xlink:href="#ar"/><use transform="matrix(0.05,0,0,0.05,54.95,0)" xlink:href="#S"/></g><g id="J"><use transform="matrix(0.05,0,0,0.05,0,0)" xlink:href="#aG"/><use transform="matrix(0.05,0,0,0.05,5,0)" xlink:href="#Z"/><use transform="matrix(0.05,0,0,0.05,17.950000000000003,0)" xlink:href="#aa"/><use transform="matrix(0.05,0,0,0.05,27.950000000000003,0)" xlink:href="#V"/><use transform="matrix(0.05,0,0,0.05,36.95,0)" xlink:href="#aa"/><use transform="matrix(0.05,0,0,0.05,46.95,0)" xlink:href="#T"/><use transform="matrix(0.05,0,0,0.05,50.900000000000006,0)" xlink:href="#ab"/><use transform="matrix(0.05,0,0,0.05,59.900000000000006,0)" xlink:href="#aa"/><use transform="matrix(0.05,0,0,0.05,69.9,0)" xlink:href="#X"/><use transform="matrix(0.05,0,0,0.05,74.85000000000001,0)" xlink:href="#av"/></g><g id="K"><use transform="matrix(0.05,0,0,0.05,0,0)" xlink:href="#aG"/><use transform="matrix(0.05,0,0,0.05,5,0)" xlink:href="#aE"/><use transform="matrix(0.05,0,0,0.05,13.950000000000001,0)" xlink:href="#W"/><use transform="matrix(0.05,0,0,0.05,23.950000000000003,0)" xlink:href="#aq"/><use transform="matrix(0.05,0,0,0.05,33.95,0)" xlink:href="#T"/><use transform="matrix(0.05,0,0,0.05,37.900000000000006,0)" xlink:href="#V"/><use transform="matrix(0.05,0,0,0.05,46.900000000000006,0)" xlink:href="#U"/><use transform="matrix(0.05,0,0,0.05,55.900000000000006,0)" xlink:href="#aH"/><use transform="matrix(0.05,0,0,0.05,60.900000000000006,0)" xlink:href="#aH"/></g><path d="M115-194c53 0 69 39 70 98 0 66-23 100-70 100C84 3 66-7 56-30L54 0H23l1-261h32v101c10-23 28-34 59-34zm-8 174c40 0 45-34 45-75 0-40-5-75-45-74-42 0-51 32-51 76 0 43 10 73 51 73" id="aL"/><g id="L"><use transform="matrix(0.05,0,0,0.05,0,0)" xlink:href="#ay"/><use transform="matrix(0.05,0,0,0.05,12,0)" xlink:href="#al"/><use transform="matrix(0.05,0,0,0.05,22,0)" xlink:href="#aL"/><use transform="matrix(0.05,0,0,0.05,32,0)" xlink:href="#U"/><use transform="matrix(0.05,0,0,0.05,41,0)" xlink:href="#V"/><use transform="matrix(0.05,0,0,0.05,50,0)" xlink:href="#X"/><use transform="matrix(0.05,0,0,0.05,55.95,0)" xlink:href="#T"/><use transform="matrix(0.05,0,0,0.05,59.900000000000006,0)" xlink:href="#aq"/><use transform="matrix(0.05,0,0,0.05,69.9,0)" xlink:href="#ai"/><use transform="matrix(0.05,0,0,0.05,74.9,0)" xlink:href="#T"/><use transform="matrix(0.05,0,0,0.05,78.85000000000001,0)" xlink:href="#W"/><use transform="matrix(0.05,0,0,0.05,88.85000000000001,0)" xlink:href="#aj"/></g><path d="M24-231v-30h32v30H24zM-9 49c24 4 33-6 33-30v-209h32V24c2 40-23 58-65 49V49" id="aM"/><g id="M"><use transform="matrix(0.05,0,0,0.05,0,0)" xlink:href="#Y"/><use transform="matrix(0.05,0,0,0.05,10,0)" xlink:href="#T"/><use transform="matrix(0.05,0,0,0.05,13.949999999999998,0)" xlink:href="#U"/><use transform="matrix(0.05,0,0,0.05,22.95,0)" xlink:href="#V"/><use transform="matrix(0.05,0,0,0.05,31.950000000000003,0)" xlink:href="#W"/><use transform="matrix(0.05,0,0,0.05,41.95,0)" xlink:href="#X"/><use transform="matrix(0.05,0,0,0.05,47.900000000000006,0)" xlink:href="#Y"/><use transform="matrix(0.05,0,0,0.05,57.900000000000006,0)" xlink:href="#au"/><use transform="matrix(0.05,0,0,0.05,62.900000000000006,0)" xlink:href="#aM"/><use transform="matrix(0.05,0,0,0.05,66.85000000000001,0)" xlink:href="#W"/><use transform="matrix(0.05,0,0,0.05,76.85000000000001,0)" xlink:href="#T"/><use transform="matrix(0.05,0,0,0.05,80.80000000000001,0)" xlink:href="#aj"/></g><g id="N"><use transform="matrix(0.05,0,0,0.05,0,0)" xlink:href="#ac"/><use transform="matrix(0.05,0,0,0.05,12,0)" xlink:href="#at"/><use transform="matrix(0.05,0,0,0.05,26.950000000000003,0)" xlink:href="#af"/><use transform="matrix(0.05,0,0,0.05,36.95,0)" xlink:href="#T"/><use transform="matrix(0.05,0,0,0.05,40.900000000000006,0)" xlink:href="#ag"/></g><g id="O"><use transform="matrix(0.05,0,0,0.05,0,0)" xlink:href="#aa"/><use transform="matrix(0.05,0,0,0.05,10,0)" xlink:href="#at"/><use transform="matrix(0.05,0,0,0.05,24.950000000000003,0)" xlink:href="#af"/><use transform="matrix(0.05,0,0,0.05,34.95,0)" xlink:href="#T"/><use transform="matrix(0.05,0,0,0.05,38.900000000000006,0)" xlink:href="#ag"/><use transform="matrix(0.05,0,0,0.05,42.85000000000001,0)" xlink:href="#au"/><use transform="matrix(0.05,0,0,0.05,47.85000000000001,0)" xlink:href="#aj"/><use transform="matrix(0.05,0,0,0.05,57.85,0)" xlink:href="#aa"/><use transform="matrix(0.05,0,0,0.05,67.85000000000001,0)" xlink:href="#aD"/><use transform="matrix(0.05,0,0,0.05,80.80000000000001,0)" xlink:href="#ap"/><use transform="matrix(0.05,0,0,0.05,94.80000000000001,0)" xlink:href="#X"/><use transform="matrix(0.05,0,0,0.05,100.75000000000001,0)" xlink:href="#W"/><use transform="matrix(0.05,0,0,0.05,110.75,0)" xlink:href="#al"/><use transform="matrix(0.05,0,0,0.05,120.75,0)" xlink:href="#aq"/></g><g id="P"><use transform="matrix(0.05,0,0,0.05,0,0)" xlink:href="#az"/><use transform="matrix(0.05,0,0,0.05,12.950000000000001,0)" xlink:href="#aq"/><use transform="matrix(0.05,0,0,0.05,22.950000000000003,0)" xlink:href="#Y"/><use transform="matrix(0.05,0,0,0.05,32.95,0)" xlink:href="#af"/><use transform="matrix(0.05,0,0,0.05,42.95,0)" xlink:href="#ai"/><use transform="matrix(0.05,0,0,0.05,47.95,0)" xlink:href="#aa"/></g><g id="Q"><use transform="matrix(0.05,0,0,0.05,0,0)" xlink:href="#al"/><use transform="matrix(0.05,0,0,0.05,10,0)" xlink:href="#aq"/><use transform="matrix(0.05,0,0,0.05,20,0)" xlink:href="#Y"/><use transform="matrix(0.05,0,0,0.05,30,0)" xlink:href="#af"/><use transform="matrix(0.05,0,0,0.05,40,0)" xlink:href="#ai"/><use transform="matrix(0.05,0,0,0.05,45,0)" xlink:href="#aa"/><use transform="matrix(0.05,0,0,0.05,55,0)" xlink:href="#au"/><use transform="matrix(0.05,0,0,0.05,60,0)" xlink:href="#aE"/><use transform="matrix(0.05,0,0,0.05,70.3,0)" xlink:href="#X"/><use transform="matrix(0.05,0,0,0.05,76.25,0)" xlink:href="#af"/><use transform="matrix(0.05,0,0,0.05,86.25,0)" xlink:href="#aC"/><use transform="matrix(0.05,0,0,0.05,90.9,0)" xlink:href="#aC"/><use transform="matrix(0.05,0,0,0.05,95.9,0)" xlink:href="#T"/><use transform="matrix(0.05,0,0,0.05,99.85000000000001,0)" xlink:href="#V"/></g><g id="R"><use transform="matrix(0.05,0,0,0.05,0,0)" xlink:href="#ay"/><use transform="matrix(0.05,0,0,0.05,12,0)" xlink:href="#aB"/><use transform="matrix(0.05,0,0,0.05,22,0)" xlink:href="#aa"/><use transform="matrix(0.05,0,0,0.05,32,0)" xlink:href="#Y"/><use transform="matrix(0.05,0,0,0.05,42,0)" xlink:href="#al"/><use transform="matrix(0.05,0,0,0.05,52,0)" xlink:href="#ag"/><use transform="matrix(0.05,0,0,0.05,55.95,0)" xlink:href="#aa"/><use transform="matrix(0.05,0,0,0.05,65.95,0)" xlink:href="#X"/></g></defs></g></svg>